# xmcd
#
# Track frame offsets: 
#        150
#        16780
#        35655
#        56642
#        73672
#        89837
#        114810
#        131740
#        154925
#        171767
#        191440
#        210902
#        226300
#        242415
#        255677
#        269692
#        292350
#
# Disc length: 4188 seconds
#
# Revision: 2
# Processed by: cddbd v1.5.2PL0 Copyright (c) Steve Scherf et al.
# Submitted via: ExactAudioCopyFreeDBPlugin 1.0
#
DISCID=f7105a11
DTITLE=Various Artist - New Blues Classics
DYEAR=1994
DGENRE=Blues
TTITLE0=Roomful of Blues - That Will Never Do
TTITLE1=Smokin' Joe Kubek Band featuring Bnols King - Texas Cadillac
TTITLE2=Smokey Wilson w/Ron Levy and South Central Rythm - You Took Ever
TTITLE2=ything From Me
TTITLE3=Barbara Lynn featuring The Memphis Horns - Payback
TTITLE4=The Preston Shannon Band featuring The Memphis Horns - Have Yo
TTITLE4=ur Woman Ever Loved You So Good
TTITLE5=Little Jimmy King with Tommy Shannon, Chris Layton and Ron Levy 
TTITLE5=/ Something Inside of Me
TTITLE6=Ron Levy's Wild Kingdom featuring Lowell Fulson and South Centra
TTITLE6=l Rythm and Perry G - Groovelatin' Acid Blues
TTITLE7=Dalton Reed featuring Michael Toles - They Say
TTITLE8=Charles Brown w/Wardell Quezergue and the Crescent City Little B
TTITLE8=ig Band - Just A Luck So And So
TTITLE9=Michelle "Evil Gal" Wilson featuring Sugar Ray Norcia and Ron 
TTITLE9=Levy - You Got What It Takes
TTITLE10=Mojo Buford - Deep Sea Diver
TTITLE11=Omar and the Howlers - Special Love
TTITLE12=Booker T. Laury - Blues With A Feeling
TTITLE13=Luther "Guitar Junior" Johnson - Ain't Treatin' Me Right
TTITLE14="Wild Child" Butler - Rent Money Gone Again
TTITLE15=Ronnie Earl - Blue Guitar
TTITLE16=Jimmy McCracklin w/Johnny Otis and Bobby Forte - Taste of the B
TTITLE16=lues
EXTD=
EXTT0=
EXTT1=
EXTT2=
EXTT3=
EXTT4=
EXTT5=
EXTT6=
EXTT7=
EXTT8=
EXTT9=
EXTT10=
EXTT11=
EXTT12=
EXTT13=
EXTT14=
EXTT15=
EXTT16=
PLAYORDER=
